<svg width="139" height="20" xmlns="http://www.w3.org/2000/svg">
 <defs>
  <linearGradient y2="100%" y1="0%" x2="17.503%" x1="72.195%" id="a">
   <stop stop-color="#33D35E" offset="0%"/>
   <stop stop-color="#2AB6D9" offset="100%"/>
  </linearGradient>
 </defs>
 <g>
  <title>background</title>
  <rect fill="none" id="canvas_background" height="402" width="582" y="-1" x="-1"/>
 </g>
 <g>
  <title>Layer 1</title>
  <path stroke="null" id="svg_2" d="m39.566275,16.121724c2.800828,0 5.059561,-1.622 5.845207,-4.216l-3.827078,0c-0.369254,0.665 -1.119546,1.066 -2.018128,1.066c-1.214805,0 -2.027949,-0.674 -2.278374,-1.978l8.288566,0c0.050085,-0.352 0.079547,-0.694 0.079547,-1.037c0,-3.335 -2.49148,-5.95 -6.089739,-5.95c-3.503981,0 -6.064206,2.564 -6.064206,6.049c0,3.473 2.580847,6.066 6.064206,6.066zm2.301943,-7.297l-4.513537,0c0.311312,-1.129 1.090084,-1.749 2.211594,-1.749c1.15981,0 1.964115,0.613 2.301943,1.75l0,-0.001zm10.749602,7.296c1.296316,0 2.455144,-0.434 3.368457,-1.188l0.329971,0.804l2.972688,0l0,-11.369l-2.866626,0l-0.392823,0.88c-0.923134,-0.775 -2.096693,-1.222 -3.411668,-1.222c-3.413632,0 -5.854045,2.505 -5.854045,6.026c0,3.533 2.440413,6.07 5.854045,6.07l0,-0.001zm0.514598,-3.467c-1.440678,0 -2.499337,-1.108 -2.499337,-2.593c0,-1.475 1.04982,-2.583 2.499337,-2.583c1.439696,0 2.498354,1.108 2.498354,2.583c0,1.485 -1.058658,2.593 -2.498354,2.593zm12.887542,3.467c2.965814,0 4.934839,-1.554 4.934839,-3.93c0,-2.883 -2.344171,-3.256 -4.107947,-3.575c-1.060622,-0.193 -1.915012,-0.344 -1.915012,-0.99c0,-0.527 0.414428,-0.838 1.03116,-0.838c0.697261,0 1.175523,0.337 1.175523,1.063l3.601205,0c-0.043211,-2.303 -1.885551,-3.843 -4.729589,-3.843c-2.859752,0 -4.766907,1.47 -4.766907,3.75c0,2.757 2.295069,3.289 4.026436,3.574c1.072407,0.181 1.916976,0.368 1.916976,1.024c0,0.587 -0.533257,0.88 -1.095976,0.88c-0.728687,0 -1.296316,-0.383 -1.296316,-1.214l-3.702357,0c0.035354,2.463 1.884568,4.1 4.927965,4.1l0,-0.001zm7.954666,3.858c2.883321,0 4.266058,-1.257 5.771552,-4.736l4.678522,-10.863l-4.130534,0l-2.208647,6.263l-2.368723,-6.263l-4.178655,0l4.613706,10.43c-0.520491,1.414 -0.965363,1.804 -2.435503,1.804l-1.058658,0l0,3.365l1.316939,0zm18.171993,-3.858c3.437201,0 5.86583,-2.515 5.86583,-6.048s-2.427646,-6.048 -5.86583,-6.048a5.236331,5.332 0 0 0 -2.774313,0.784l0,-4.534l-3.800563,0l0,15.474l2.845021,0l0.363361,-0.844c0.906439,0.771 2.064285,1.216 3.366493,1.216zm-0.513616,-3.467c-1.440678,0 -2.499337,-1.108 -2.499337,-2.58c0,-1.486 1.058658,-2.594 2.499337,-2.594c1.439696,0 2.498354,1.108 2.498354,2.593c0,1.473 -1.067497,2.58 -2.498354,2.58l0,0.001zm13.354019,3.467c1.296316,0 2.455144,-0.434 3.368457,-1.188l0.329971,0.804l2.972688,0l0,-11.369l-2.865644,0l-0.393805,0.88c-0.922152,-0.775 -2.096693,-1.222 -3.411668,-1.222c-3.413632,0 -5.853063,2.505 -5.853063,6.026c0,3.533 2.439431,6.07 5.853063,6.07l0,-0.001zm0.514598,-3.467c-1.440678,0 -2.499337,-1.108 -2.499337,-2.593c0,-1.475 1.050802,-2.583 2.499337,-2.583c1.440678,0 2.499337,1.108 2.499337,2.583c0,1.485 -1.058658,2.593 -2.499337,2.593zm12.425974,3.095l0,-6.071c0,-1.447 0.689404,-2.3 1.888497,-2.3c0.968309,0 1.456391,0.657 1.456391,1.98l0,6.39l3.844755,0l0,-6.93c0,-2.897 -1.701906,-4.773 -4.294538,-4.773c-1.443625,0 -2.683963,0.565 -3.515766,1.508l-0.527365,-1.172l-2.697712,0l0,11.369l3.845737,0l0,-0.001zm13.501327,0l0,-4.808l2.7969,4.808l4.533178,0l-3.831989,-5.95l3.47943,-5.419l-4.318107,0l-2.659412,4.454l0,-8.559l-3.845737,0l0,15.474l3.845737,0z" fill-rule="nonzero" fill="#ffffff"/>
  <g id="svg_3" fill="url(#a)">
   <path id="svg_4" d="m10.802,0.274724l-10.802,19.704l5.986,0l10.803,-19.704l-5.987,0z"/>
   <path id="svg_5" d="m18.171,0.274724l-10.803,19.704l5.986,0l10.803,-19.704l-5.986,0z" opacity="0.5"/>
   <path id="svg_6" d="m25.539,0.274724l-10.802,19.704l5.986,0l10.802,-19.704l-5.986,0z" opacity="0.15"/>
  </g>
 </g>
</svg>